<mxfile host="app.diagrams.net" modified="2023-07-09T11:35:44.106Z" agent="Mozilla/5.0 (Windows NT 10.0; Win64; x64) AppleWebKit/537.36 (KHTML, like Gecko) Chrome/114.0.0.0 Safari/537.36" etag="DUVjRZY-uZYIPJI0_1gQ" version="21.6.1" type="github">
  <diagram name="第 1 页" id="DBPfqXYwVOIdsHyhTNhN">
    <mxGraphModel dx="988" dy="535" grid="1" gridSize="10" guides="1" tooltips="1" connect="1" arrows="1" fold="1" page="1" pageScale="1" pageWidth="827" pageHeight="1169" math="0" shadow="0">
      <root>
        <mxCell id="0" />
        <mxCell id="1" parent="0" />
        <mxCell id="FGEGBE4F1aN0uVuU4Zxw-15" style="edgeStyle=orthogonalEdgeStyle;rounded=0;orthogonalLoop=1;jettySize=auto;html=1;exitX=1;exitY=0.5;exitDx=0;exitDy=0;entryX=0;entryY=0.5;entryDx=0;entryDy=0;" edge="1" parent="1" source="FGEGBE4F1aN0uVuU4Zxw-1" target="FGEGBE4F1aN0uVuU4Zxw-2">
          <mxGeometry relative="1" as="geometry" />
        </mxCell>
        <mxCell id="FGEGBE4F1aN0uVuU4Zxw-19" value="push" style="edgeLabel;html=1;align=center;verticalAlign=middle;resizable=0;points=[];" vertex="1" connectable="0" parent="FGEGBE4F1aN0uVuU4Zxw-15">
          <mxGeometry x="-0.19" relative="1" as="geometry">
            <mxPoint x="10" as="offset" />
          </mxGeometry>
        </mxCell>
        <mxCell id="FGEGBE4F1aN0uVuU4Zxw-1" value="Sentinel Dashboard" style="rounded=0;whiteSpace=wrap;html=1;fillColor=#e1d5e7;strokeColor=#9673a6;" vertex="1" parent="1">
          <mxGeometry x="20" y="512.5" width="190" height="110" as="geometry" />
        </mxCell>
        <mxCell id="FGEGBE4F1aN0uVuU4Zxw-2" value="Nacos Config" style="ellipse;whiteSpace=wrap;html=1;fillColor=#ffe6cc;strokeColor=#d79b00;" vertex="1" parent="1">
          <mxGeometry x="309" y="515" width="210" height="105" as="geometry" />
        </mxCell>
        <mxCell id="FGEGBE4F1aN0uVuU4Zxw-4" value="" style="rounded=0;whiteSpace=wrap;html=1;fillColor=#fff2cc;strokeColor=#d6b656;" vertex="1" parent="1">
          <mxGeometry x="610" y="475" width="160" height="190" as="geometry" />
        </mxCell>
        <mxCell id="FGEGBE4F1aN0uVuU4Zxw-6" value="Sentinel client" style="rounded=1;whiteSpace=wrap;html=1;fillColor=#dae8fc;strokeColor=#6c8ebf;" vertex="1" parent="1">
          <mxGeometry x="630" y="545" width="120" height="45" as="geometry" />
        </mxCell>
        <mxCell id="FGEGBE4F1aN0uVuU4Zxw-7" value="Sentinel client" style="rounded=1;whiteSpace=wrap;html=1;fillColor=#dae8fc;strokeColor=#6c8ebf;" vertex="1" parent="1">
          <mxGeometry x="630" y="485" width="120" height="45" as="geometry" />
        </mxCell>
        <mxCell id="FGEGBE4F1aN0uVuU4Zxw-8" value="Sentinel client" style="rounded=1;whiteSpace=wrap;html=1;fillColor=#dae8fc;strokeColor=#6c8ebf;" vertex="1" parent="1">
          <mxGeometry x="630" y="605" width="120" height="45" as="geometry" />
        </mxCell>
        <mxCell id="FGEGBE4F1aN0uVuU4Zxw-16" style="edgeStyle=orthogonalEdgeStyle;rounded=0;orthogonalLoop=1;jettySize=auto;html=1;entryX=0;entryY=0.5;entryDx=0;entryDy=0;" edge="1" parent="1" source="FGEGBE4F1aN0uVuU4Zxw-2" target="FGEGBE4F1aN0uVuU4Zxw-6">
          <mxGeometry relative="1" as="geometry" />
        </mxCell>
        <mxCell id="FGEGBE4F1aN0uVuU4Zxw-21" value="push" style="edgeLabel;html=1;align=center;verticalAlign=middle;resizable=0;points=[];" vertex="1" connectable="0" parent="FGEGBE4F1aN0uVuU4Zxw-16">
          <mxGeometry x="-0.474" y="-1" relative="1" as="geometry">
            <mxPoint y="-2" as="offset" />
          </mxGeometry>
        </mxCell>
        <mxCell id="FGEGBE4F1aN0uVuU4Zxw-17" style="edgeStyle=orthogonalEdgeStyle;rounded=0;orthogonalLoop=1;jettySize=auto;html=1;exitX=1;exitY=0;exitDx=0;exitDy=0;entryX=0;entryY=0.5;entryDx=0;entryDy=0;" edge="1" parent="1" source="FGEGBE4F1aN0uVuU4Zxw-2" target="FGEGBE4F1aN0uVuU4Zxw-7">
          <mxGeometry relative="1" as="geometry" />
        </mxCell>
        <mxCell id="FGEGBE4F1aN0uVuU4Zxw-20" value="push" style="edgeLabel;html=1;align=center;verticalAlign=middle;resizable=0;points=[];" vertex="1" connectable="0" parent="FGEGBE4F1aN0uVuU4Zxw-17">
          <mxGeometry x="-0.289" y="-1" relative="1" as="geometry">
            <mxPoint y="-2" as="offset" />
          </mxGeometry>
        </mxCell>
        <mxCell id="FGEGBE4F1aN0uVuU4Zxw-18" style="edgeStyle=orthogonalEdgeStyle;rounded=0;orthogonalLoop=1;jettySize=auto;html=1;exitX=1;exitY=1;exitDx=0;exitDy=0;entryX=0;entryY=0.5;entryDx=0;entryDy=0;" edge="1" parent="1" source="FGEGBE4F1aN0uVuU4Zxw-2" target="FGEGBE4F1aN0uVuU4Zxw-8">
          <mxGeometry relative="1" as="geometry" />
        </mxCell>
        <mxCell id="FGEGBE4F1aN0uVuU4Zxw-22" value="push" style="edgeLabel;html=1;align=center;verticalAlign=middle;resizable=0;points=[];" vertex="1" connectable="0" parent="FGEGBE4F1aN0uVuU4Zxw-18">
          <mxGeometry x="-0.4281" y="-1" relative="1" as="geometry">
            <mxPoint x="11" y="-2" as="offset" />
          </mxGeometry>
        </mxCell>
      </root>
    </mxGraphModel>
  </diagram>
</mxfile>
